# xmcd
#
# Track frame offsets: 
#        182
#        12777
#        25037
#        35477
#        52927
#        67490
#        77695
#        92297
#        103812
#        119892
#        134322
#        149667
#        165912
#        177587
#        189682
#        200842
#        212107
#        224995
#        237265
#        246900
#        262670
#        272682
#        284267
#
# Disc length: 4309 seconds
#
# Revision: 4
# Processed by: cddbd v1.5.2PL0 Copyright (c) Steve Scherf et al.
# Submitted via: ExactAudioCopy v0.99pb3
#
DISCID=6410d317
DTITLE=Dinah Washington - The Best Of The Roulette Years
DYEAR=1900
DGENRE=Jazz
TTITLE0=You're Nobody 'Til Somebody Loves You
TTITLE1=Take Your Shoes Off Baby
TTITLE2=Call Me Irresponsible
TTITLE3=You've Been A Good Old Wagon
TTITLE4=He's My Guy
TTITLE5=Where Are You
TTITLE6=For All We Know
TTITLE7=Red Sails In The Sunset
TTITLE8=Me And My Gin
TTITLE9=It's A Mean Old Man's World
TTITLE10=Is You Is Or Is You Ain't My Baby
TTITLE11=That Sunday (That Summer)
TTITLE12=Something's Gotta Give
TTITLE13=Let Me Be The First To Know
TTITLE14=You're A Sweetheart
TTITLE15=Fly Me To The Moon
TTITLE16=I'll Close My Eyes
TTITLE17=Why Was I Born?
TTITLE18=Baby Won't You Please Come Home
TTITLE19=Drinking Again
TTITLE20=Romance In The Dark
TTITLE21=Destination Moon
TTITLE22=Nobody Knows The Way I Feel This Morning
EXTD=Capitol-EMI Music, Inc.\n1992\n\nSubmitted by: Walt and Peggy Schne
EXTD=ider\nwalts@qualcomm.com
EXTT0=
EXTT1=
EXTT2=
EXTT3=
EXTT4=
EXTT5=
EXTT6=
EXTT7=
EXTT8=
EXTT9=
EXTT10=
EXTT11=
EXTT12=
EXTT13=
EXTT14=
EXTT15=
EXTT16=
EXTT17=
EXTT18=
EXTT19=
EXTT20=
EXTT21=
EXTT22=
PLAYORDER=
